:SAMPLES-PER-SECOND 30
:FRAME-RANGE 1-668
:FULLY-SPECIFIED
:DEGREES
439
root  -46.7515 39.3929 24.4552 -173.91 -17.2124 -175.704
RightUpLeg  -13.6985 -9.94963 -3.71906
RightLeg  30.0868 -4.98364 -3.34625
RightFoot  -10.0747 -0.155414 7.84628
RightToes  5.38607e-012 1.2921e-014 -6.02303e-014
Spine  -6.76648 -3.71091 -5.50546
Spine1  9.13356 -3.93544 1.05155
HEad  3.0644 -41.068 11.9624
LeftShoulder1  1.30046 -1.50023 -20.9079
LeftArm  7.68418 12.5387 -29.5991
LeftForeArm  34.093 -8.62415 -11.6853
LeftHand  -0.00616585 5.80242 5.42888
RightShoulder  1.47096 1.10472 27.3373
RightArm  -20.5664 8.06709 56.1025
RightForeArm  72.7292 -5.50632 5.38661
RightHand  0.0419536 -5.86744 -14.3427
LeftUpLeg  -15.1338 7.98208 7.26624
LeftLeg  19.3308 14.3525 5.85206
LeftFoot  -7.45581 0.33638 -8.59012
LeftToes  -6.11857e-011 5.00151e-011 -2.22593e-011
440
root  -46.8133 39.439 24.3954 -173.807 -14.5579 -175.487
RightUpLeg  -13.1792 -13.9224 -3.21029
RightLeg  26.9666 -7.12725 -4.14691
RightFoot  -9.28129 -0.194603 7.30136
RightToes  5.38607e-012 1.2921e-014 -6.02303e-014
Spine  -6.95015 -3.62629 -4.93897
Spine1  9.04783 -3.87366 1.23697
HEad  3.54282 -39.6738 11.8463
LeftShoulder1  1.32018 -1.61462 -20.6644
LeftArm  10.7318 11.3385 -30.475
LeftForeArm  33.3074 -9.74162 -11.5727
LeftHand  -0.00145107 5.96342 5.08919
RightShoulder  1.46738 1.08123 27.437
RightArm  -19.8995 8.03655 55.6401
RightForeArm  72.6322 -5.56247 5.70585
RightHand  0.0365524 -5.81843 -14.4526
LeftUpLeg  -14.4104 8.99212 7.42747
LeftLeg  19.1933 15.9644 6.37128
LeftFoot  -7.50376 0.342558 -8.87241
LeftToes  -6.11857e-011 5.00151e-011 -2.22593e-011
441
root  -46.8092 39.4867 24.3183 -173.689 -11.7858 -175.239
RightUpLeg  -12.8107 -18.2647 -2.57172
RightLeg  23.7365 -9.14215 -4.5884
RightFoot  -8.56233 -0.232042 7.15448
RightToes  5.38607e-012 1.2921e-014 -6.02303e-014
Spine  -7.32827 -3.54583 -4.17085
Spine1  9.20187 -3.78 1.18644
HEad  4.0184 -38.0855 12.0544
LeftShoulder1  1.39211 -1.92057 -20.4581
LeftArm  13.7886 10.5416 -32.1868
LeftForeArm  32.8189 -11.5222 -10.9448
LeftHand  0.00749743 6.21618 4.97379
RightShoulder  1.48009 1.11733 27.4536
RightArm  -19.4933 8.03215 55.4851
RightForeArm  72.6155 -5.09367 5.96994
RightHand  0.0102875 -5.61098 -14.1158
LeftUpLeg  -13.5651 10.1061 7.72935
LeftLeg  18.876 17.5227 6.8003
LeftFoot  -7.46663 0.369929 -9.59953
LeftToes  -6.11857e-011 5.00151e-011 -2.22593e-011
442
root  -46.733 39.5358 24.2251 -173.52 -8.98239 -175.179
RightUpLeg  -12.7966 -23.4964 -1.73906
RightLeg  20.6032 -11.4505 -4.9249
RightFoot  -7.25001 -0.300182 7.01286
RightToes  5.38607e-012 1.2921e-014 -6.02303e-014
Spine  -7.70119 -3.50246 -3.65016
Spine1  9.33477 -3.74204 1.23575
HEad  4.66508 -36.174 12.202
LeftShoulder1  1.42523 -1.98732 -20.7684
LeftArm  19.1575 8.86593 -33.9093
LeftForeArm  30.8378 -13.4122 -10.2596
LeftHand  0.00711401 6.1641 5.17781
RightShoulder  1.47683 1.11089 27.4273
RightArm  -19.5169 8.16114 55.6429
RightForeArm  73.006 -4.84615 5.96987
RightHand  -0.0133911 -5.41789 -13.5096
LeftUpLeg  -12.5672 11.0778 7.93842
LeftLeg  18.3179 19.3259 7.18128
LeftFoot  -7.25456 0.401224 -10.0105
LeftToes  -6.11857e-011 5.00151e-011 -2.22593e-011
443
root  -46.5699 39.5726 24.1067 -173.461 -5.90982 -175.281
RightUpLeg  -12.9737 -27.7421 -0.897464
RightLeg  17.8427 -15.139 -5.11237
RightFoot  -5.64014 -0.389725 7.04562
RightToes  5.38607e-012 1.2921e-014 -6.02303e-014
Spine  -8.00875 -3.42698 -3.1745
Spine1  9.42264 -3.61592 1.05351
HEad  5.83527 -34.0233 12.2827
LeftShoulder1  1.48 -2.15085 -20.9796
LeftArm  26.1674 7.20913 -35.9553
LeftForeArm  26.6515 -15.913 -8.95139
LeftHand  0.0436362 6.56569 6.97012
RightShoulder  1.48497 1.12972 27.4714
RightArm  -19.3266 8.18807 55.9834
RightForeArm  73.5456 -4.73856 6.05399
RightHand  -0.00654351 -5.48416 -13.1373
LeftUpLeg  -11.2185 11.821 8.15853
LeftLeg  17.6241 21.5398 7.56077
LeftFoot  -6.94348 0.453925 -10.7169
LeftToes  -6.11857e-011 5.00151e-011 -2.22593e-011
444
root  -46.2957 39.5759 23.9827 -173.352 -2.37563 -175.632
RightUpLeg  -13.315 -25.9176 -0.941153
RightLeg  16.5254 -23.0922 -5.52465
RightFoot  -4.38696 -0.423603 6.47169
RightToes  5.38607e-012 1.2921e-014 -6.02303e-014
Spine  -8.36325 -3.27118 -3.01196
Spine1  9.44757 -3.3598 0.739596
HEad  7.30512 -31.4235 12.1873
LeftShoulder1  1.51444 -2.30182 -20.8564
LeftArm  34.469 5.28817 -38.5991
LeftForeArm  22.5025 -18.8111 -6.90927
LeftHand  0.010932 6.10904 5.99207
RightShoulder  1.51282 1.21525 27.4575
RightArm  -19.074 7.96251 56.5347
RightForeArm  74.5531 -4.30286 6.21958
RightHand  0.0188353 -5.73946 -12.4622
LeftUpLeg  -9.8008 12.4518 8.26674
LeftLeg  17.0726 24.2792 8.02993
LeftFoot  -6.53081 0.530075 -11.659
LeftToes  -6.11857e-011 5.00151e-011 -2.22593e-011
445
root  -45.9465 39.5581 23.8269 -173.477 1.16164 -176.029
RightUpLeg  -14.01 -24.0182 -0.733567
RightLeg  16.5895 -28.1123 -6.41652
RightFoot  -2.72881 -0.444073 5.64475
RightToes  5.38607e-012 1.2921e-014 -6.02303e-014
Spine  -8.75837 -3.23524 -2.81112
Spine1  9.67899 -3.25184 0.47234
HEad  8.84318 -28.3894 11.7431
LeftShoulder1  1.59981 -2.65087 -20.6983
LeftArm  41.848 3.04196 -41.2034
LeftForeArm  20.7873 -21.643 -4.74167
LeftHand  0.0375706 6.54577 6.52953
RightShoulder  1.42032 0.914946 27.6396
RightArm  -19.7528 7.73321 57.6421
RightForeArm  76.5763 -3.9585 5.83072
RightHand  0.0237868 -5.82108 -11.7189
LeftUpLeg  -8.12091 12.9805 8.48019
LeftLeg  16.682 27.0401 8.50063
LeftFoot  -6.10142 0.625372 -12.8274
LeftToes  -6.11857e-011 5.00151e-011 -2.22593e-011
446
root  -45.5065 39.4642 23.6464 -173.916 4.23555 -176.551
RightUpLeg  -15.2698 -25.6476 0.527634
RightLeg  18.1913 -25.4983 -8.06114
RightFoot  -2.53702 -0.459707 5.74101
RightToes  5.38607e-012 1.2921e-014 -6.02303e-014
Spine  -8.73185 -3.53073 -3.21421
Spine1  9.59085 -3.64239 0.870992
HEad  10.4185 -24.9677 10.7315
LeftShoulder1  1.71363 -3.0261 -20.9202
LeftArm  44.9175 0.330124 -43.172
LeftForeArm  21.6465 -24.1482 -4.02745
LeftHand  0.0245878 6.2841 6.59641
RightShoulder  1.42607 0.961884 27.3972
RightArm  -19.2829 7.37831 58.2836
RightForeArm  76.9968 -3.61909 6.13459
RightHand  0.0616838 -6.21975 -11.5949
LeftUpLeg  -6.60378 13.4898 8.7198
LeftLeg  17.2406 29.14 9.35758
LeftFoot  -5.92042 0.708434 -14.1585
LeftToes  -6.11857e-011 5.00151e-011 -2.22593e-011
